<?xml version="1.0" encoding="UTF-8" standalone="no"?>
<svg
   xmlns:dc="http://purl.org/dc/elements/1.1/"
   xmlns:cc="http://creativecommons.org/ns#"
   xmlns:rdf="http://www.w3.org/1999/02/22-rdf-syntax-ns#"
   xmlns:svg="http://www.w3.org/2000/svg"
   xmlns="http://www.w3.org/2000/svg"
   viewBox="0 0 486.66666 143.16"
   height="143.16"
   width="486.66666"
   xml:space="preserve"
   id="svg2"
   version="1.1"><metadata
     id="metadata8"><rdf:RDF><cc:Work
         rdf:about=""><dc:format>image/svg+xml</dc:format><dc:type
           rdf:resource="http://purl.org/dc/dcmitype/StillImage" /></cc:Work></rdf:RDF></metadata><defs
     id="defs6"><clipPath
       id="clipPath20"
       clipPathUnits="userSpaceOnUse"><path
         id="path18"
         d="M 0,1073.66 V 0 h 3650 v 1073.66 z" /></clipPath></defs><g
     transform="matrix(1.3333333,0,0,-1.3333333,0,143.16)"
     id="g10"><g
       transform="scale(0.1)"
       id="g12"><g
         id="g14"><g
           clip-path="url(#clipPath20)"
           id="g16"><path
             id="path22"
             style="fill:#ffffff;fill-opacity:1;fill-rule:nonzero;stroke:none"
             d="m 2026.77,851.109 -90.58,-21.289 0.64,-482.757 89.22,16.085 1.04,227.196 c 0.19,23.82 34.43,60.402 91.68,59.246 54.72,-0.57 66.93,-36.465 66.8,-41 l 1.55,-263.012 87.99,15.57 0.33,278.868 c 0.58,26.836 -58.8,83.515 -154.22,83.918 -45.29,-0.079 -70.42,-10.34 -83.21,-17.911 -21.84,-16.886 -46.84,-33.074 -71.39,-53.726 22.67,29.164 41.73,49.32 60.34,64.316 l -0.19,134.485 z M 1905.82,672.727 c -0.9,0.437 -50,57.433 -148.72,57.878 -92.45,1.54 -196.15,-34.304 -197.83,-189.347 0.84,-136.309 99.63,-189.61 198.35,-190.641 105.69,-1.097 147.69,66.09 150.21,67.774 -12.6,10.918 -59.83,57.699 -59.83,57.699 0,0 -29.46,-42 -86.7,-42.531 -57.24,-0.543 -106.99,44.234 -107.7,106.722 -0.71,62.481 45.74,96.336 108.15,99.074 54.01,0.008 85.15,-34.867 85.15,-34.867 l 58.92,68.239 z m -539.78,48.66 -0.58,-370.641 95.94,18.477 0.12,210.144 c 0.07,31.289 44.78,67.86 100.79,67.27 11.95,21.535 34.31,76.566 39.73,89.086 -125.27,0.297 -126.82,-36.012 -148.66,-53.868 -0.19,34.071 -0.06,54.52 -0.06,54.52 l -87.28,-15.004 z M 1143.21,547.215 c 34.18,-0.465 73.33,-17.289 73.33,-57.785 0.19,-36.825 -46.13,-56.625 -76.24,-56.317 -30.1,0.317 -70.1,23.684 -70.29,59.586 0.58,32.098 37.73,55.34 73.2,54.516 z m 11.82,194.859 c -52.14,0.082 -95.42,-10.609 -112.15,-16.441 l -17.25,-93.043 c 0,-0.34 85.79,22.887 123.59,21.515 62.54,-2.25 68.35,-23.917 67.25,-53.164 1.04,-1.711 -16.15,26.43 -70.29,27.372 -68.35,1.175 -164.68,-24.18 -164.551,-127.282 -1.875,-115.98 86.571,-150.09 146.851,-150.672 54.14,0.969 79.59,20.481 93.48,30.946 18.29,19.125 39.22,38.312 59.12,61.39 -18.87,-34.32 -35.21,-58.031 -52.27,-76.121 v -15.375 l 82.38,13.891 0.58,223.801 c -0.84,31.675 18.15,152.89 -156.74,153.187 v -0.004" /><path
             id="path24"
             style="fill:#4493d6;fill-opacity:1;fill-rule:nonzero;stroke:none"
             d="m 1098.82,95.7773 v 33.3357 h 6.66 l 7.88,-23.644 c 0.78,-2.199 1.29,-3.813 1.62,-4.91 0.38,1.226 0.97,2.972 1.81,5.363 l 7.94,23.191 h 5.95 V 95.7773 h -4.27 v 27.9107 l -9.69,-27.9107 h -3.94 l -9.69,28.3637 V 95.7773 h -4.27 z m -20.02,0 v 29.3947 h -10.99 v 3.941 h 26.43 v -3.941 h -11.05 V 95.7773 Z M 3617.44,377.523 v 34.114 h 6.78 l 8.08,-24.16 c 0.77,-2.262 1.29,-3.942 1.61,-5.039 0.39,1.226 1.04,3.035 1.88,5.425 l 8.14,23.774 h 6.07 v -34.114 h -4.33 v 28.559 l -9.95,-28.559 h -4.07 l -9.88,29.075 v -29.075 z m -20.55,0 v 30.11 h -11.24 v 4.004 h 27.07 v -4.004 h -11.3 v -30.11 z M 536.621,1073.66 C 488.832,956.5 460.012,879.859 406.809,766.18 439.426,731.602 479.465,691.34 544.488,645.855 474.586,674.625 426.906,703.512 391.262,733.473 323.176,591.391 216.488,388.992 0,0 c 170.16,98.1992 302.055,158.801 424.98,181.863 -5.277,22.742 -8.277,47.293 -8.074,72.879 l 0.199,5.492 c 2.7,108.989 59.407,192.817 126.583,187.125 67.179,-5.695 119.378,-98.746 116.667,-207.738 -0.453,-20.543 -2.781,-40.25 -6.847,-58.531 C 775.094,157.316 905.602,96.9063 1073.45,0 1040.37,60.9219 1010.78,115.836 982.609,168.168 938.16,202.605 891.84,247.441 797.254,295.961 862.25,279.031 908.766,259.586 945.074,237.813 658.223,771.902 635.008,842.859 536.613,1073.63 l 0.008,0.03 z M 3300.8,702.527 3271.67,680.109 3380.08,536.391 3259.91,370.32 l 30.23,-22.547 113,154.231 112.09,-157.848 28.62,22.418 -120.17,168.766 99.69,136.488 -29.65,25.266 -90.9,-126.297 -102.02,131.73 z m -85.47,-346.355 -41.22,-8.332 0.84,72.937 c 0.06,3.102 -23.71,-81.531 -132.51,-79.656 -105.69,0.645 -121.78,81.918 -121.01,100.152 l 2.39,256.559 43.81,8.758 -2.97,-253.41 c -0.07,-6.926 7.36,-70.973 82.05,-71.231 74.62,-0.191 127.59,44.707 128.89,112.321 l 2.32,199.945 40.83,10.308 z m -650.13,343.473 41.21,8.335 -0.84,-72.96 c -0.06,-3.133 23.71,81.507 132.51,79.621 105.7,-0.582 121.85,-81.887 121.01,-100.114 l -2.39,-256.547 -36.12,-7.75 3.43,253.379 c 0.52,7.403 -15.51,69.981 -90.19,70.215 -74.62,0.219 -127.15,-53.894 -127.53,-88.465 l -2.59,-223.242 -41.86,-10.855 3.36,348.39 z m -110.61,119.492 29.39,23.562 23.72,-26.676 -29.4,-24.191 z m 6.78,-125.84 36.25,15.937 -4.65,-348.992 -34.89,-7.172 z m -109.63,145.246 41.21,10.227 -4.97,-486.719 -41.87,-7.039 5.63,483.531" /></g></g></g></g></svg>
