<?xml version="1.0" encoding="UTF-8"?>
<svg xmlns="http://www.w3.org/2000/svg" xmlns:xlink="http://www.w3.org/1999/xlink" width="1024pt" height="1024pt" viewBox="0 0 1024 1024" version="1.1">
<g id="surface1">
<path style=" stroke:none;fill-rule:nonzero;fill:rgb(0%,0%,0%);fill-opacity:1;" d="M 836.609375 704 C 836.863281 699.808594 837.054688 695.457031 837.054688 690.910156 C 836.863281 669.214844 834.238281 643.167969 819.265625 618.625 C 804.640625 593.695312 773.246094 575.105469 736 575.96875 C 698.71875 575.105469 667.265625 593.695312 652.640625 618.625 C 637.601562 643.167969 634.976562 669.214844 634.847656 690.910156 C 634.847656 695.488281 635.039062 699.808594 635.296875 704 L 608 704 L 608 864 L 864 864 L 864 704 Z M 698.785156 690.910156 C 698.65625 675.617188 701.761719 660.257812 706.910156 652.574219 C 712.449219 645.3125 715.550781 640.863281 736 639.96875 C 756.382812 640.832031 759.359375 645.246094 764.929688 652.574219 C 770.113281 660.257812 773.214844 675.710938 773.023438 690.910156 C 773.023438 695.550781 772.769531 699.871094 772.414062 704 L 699.390625 704 C 699.070312 699.808594 698.785156 695.425781 698.785156 690.910156 Z M 768 449.886719 L 768 178.6875 L 589.246094 0 L 0 0 L 0 1024 L 768 1024 L 768 1022.113281 C 911.96875 1006.113281 1023.9375 884.222656 1024 736 C 1023.9375 587.710938 911.96875 465.792969 768 449.886719 Z M 575.9375 77.214844 L 690.753906 192 L 575.9375 192 Z M 64 960 L 64 63.9375 L 512 63.9375 L 512 255.96875 L 704 255.96875 L 704 449.886719 C 647.9375 456.097656 596.734375 478.367188 555.136719 512 L 128 512 L 128 576 L 496.542969 576 C 483.359375 595.710938 472.769531 617.246094 464.734375 640 L 128 640 L 128 704 L 449.886719 704 C 448.703125 714.527344 448 725.152344 448 736 C 448 826.527344 489.855469 907.230469 555.167969 960 Z M 736 956.257812 C 614.367188 955.96875 515.96875 857.566406 515.679688 736 C 515.96875 614.367188 614.367188 515.96875 736 515.679688 C 857.566406 515.96875 955.96875 614.367188 956.257812 736 C 955.96875 857.566406 857.566406 955.96875 736 956.257812 Z M 640 384 L 128 384 L 128 448 L 640 448 Z M 640 384 "/>
</g>
</svg>
