<?xml version="1.0" encoding="UTF-8"?>
<svg xmlns="http://www.w3.org/2000/svg" xmlns:xlink="http://www.w3.org/1999/xlink" width="1024pt" height="1024pt" viewBox="0 0 1024 1024" version="1.1">
<defs>
<filter id="alpha" filterUnits="objectBoundingBox" x="0%" y="0%" width="100%" height="100%">
  <feColorMatrix type="matrix" in="SourceGraphic" values="0 0 0 0 1 0 0 0 0 1 0 0 0 0 1 0 0 0 1 0"/>
</filter>
<mask id="mask0">
  <g filter="url(#alpha)">
<rect x="0" y="0" width="1024" height="1024" style="fill:rgb(0%,0%,0%);fill-opacity:0.0784314;stroke:none;"/>
  </g>
</mask>
<linearGradient id="linear0" gradientUnits="userSpaceOnUse" x1="32.251034" y1="6.131708" x2="32.251034" y2="90.238609" gradientTransform="matrix(10.920635,0,0,-10.793651,-12.190476,1046.095243)">
<stop offset="0" style="stop-color:rgb(0%,0%,0%);stop-opacity:1;"/>
<stop offset="1" style="stop-color:rgb(0%,0%,0%);stop-opacity:0.588235;"/>
</linearGradient>
<clipPath id="clip1">
  <rect width="1024" height="1024"/>
</clipPath>
<g id="surface6" clip-path="url(#clip1)">
<path style=" stroke:none;fill-rule:nonzero;fill:url(#linear0);" d="M 128 1013.667969 C 69.214844 1013.667969 21 965.453125 21 906.667969 L 21 149.332031 C 21 90.546875 69.214844 42.332031 128 42.332031 L 896 42.332031 C 954.785156 42.332031 1003 90.546875 1003 149.332031 L 1003 906.667969 C 1003 965.453125 954.785156 1013.667969 896 1013.667969 Z M 128 1013.667969 "/>
</g>
<mask id="mask1">
  <g filter="url(#alpha)">
<rect x="0" y="0" width="1024" height="1024" style="fill:rgb(0%,0%,0%);fill-opacity:0.101961;stroke:none;"/>
  </g>
</mask>
<linearGradient id="linear1" gradientUnits="userSpaceOnUse" x1="32.251034" y1="6.131708" x2="32.251034" y2="90.238609" gradientTransform="matrix(10.920635,0,0,-10.793651,-12.190476,1046.095243)">
<stop offset="0" style="stop-color:rgb(0%,0%,0%);stop-opacity:1;"/>
<stop offset="1" style="stop-color:rgb(0%,0%,0%);stop-opacity:0.588235;"/>
</linearGradient>
<clipPath id="clip2">
  <rect width="1024" height="1024"/>
</clipPath>
<g id="surface9" clip-path="url(#clip2)">
<path style=" stroke:none;fill-rule:nonzero;fill:url(#linear1);" d="M 128 1003 C 74.96875 1003 31.667969 959.699219 31.667969 906.667969 L 31.667969 149.332031 C 31.667969 96.300781 74.96875 53 128 53 L 896 53 C 949.03125 53 992.332031 96.300781 992.332031 149.332031 L 992.332031 906.667969 C 992.332031 959.699219 949.03125 1003 896 1003 Z M 128 1003 "/>
</g>
<mask id="mask2">
  <g filter="url(#alpha)">
<rect x="0" y="0" width="1024" height="1024" style="fill:rgb(0%,0%,0%);fill-opacity:0.2;stroke:none;"/>
  </g>
</mask>
<linearGradient id="linear2" gradientUnits="userSpaceOnUse" x1="32.251034" y1="6.131708" x2="32.251034" y2="90.238609" gradientTransform="matrix(10.920635,0,0,-10.793651,-12.190476,1046.095243)">
<stop offset="0" style="stop-color:rgb(0%,0%,0%);stop-opacity:1;"/>
<stop offset="1" style="stop-color:rgb(0%,0%,0%);stop-opacity:0.588235;"/>
</linearGradient>
<clipPath id="clip3">
  <rect width="1024" height="1024"/>
</clipPath>
<g id="surface12" clip-path="url(#clip3)">
<path style=" stroke:none;fill-rule:nonzero;fill:url(#linear2);" d="M 128 992 C 80.96875 992 42.667969 953.699219 42.667969 906.667969 L 42.667969 149.332031 C 42.667969 102.300781 80.96875 64 128 64 L 896 64 C 943.03125 64 981.332031 102.300781 981.332031 149.332031 L 981.332031 906.667969 C 981.332031 953.699219 943.03125 992 896 992 Z M 128 992 "/>
</g>
<mask id="mask3">
  <g filter="url(#alpha)">
<rect x="0" y="0" width="1024" height="1024" style="fill:rgb(0%,0%,0%);fill-opacity:0.301961;stroke:none;"/>
  </g>
</mask>
<linearGradient id="linear3" gradientUnits="userSpaceOnUse" x1="32.251034" y1="6.131708" x2="32.251034" y2="90.238609" gradientTransform="matrix(10.920635,0,0,-10.793651,-12.190476,1046.095243)">
<stop offset="0" style="stop-color:rgb(0%,0%,0%);stop-opacity:1;"/>
<stop offset="1" style="stop-color:rgb(0%,0%,0%);stop-opacity:0.588235;"/>
</linearGradient>
<clipPath id="clip4">
  <rect width="1024" height="1024"/>
</clipPath>
<g id="surface15" clip-path="url(#clip4)">
<path style=" stroke:none;fill-rule:nonzero;fill:url(#linear3);" d="M 128 981.332031 L 896 981.332031 C 937.238281 981.332031 970.667969 947.902344 970.667969 906.667969 L 970.667969 149.332031 C 970.667969 108.097656 937.238281 74.667969 896 74.667969 L 128 74.667969 C 86.761719 74.667969 53.332031 108.097656 53.332031 149.332031 L 53.332031 906.667969 C 53.332031 947.902344 86.761719 981.332031 128 981.332031 Z M 128 981.332031 "/>
</g>
<mask id="mask4">
  <g filter="url(#alpha)">
<rect x="0" y="0" width="1024" height="1024" style="fill:rgb(0%,0%,0%);fill-opacity:0.45098;stroke:none;"/>
  </g>
</mask>
<linearGradient id="linear4" gradientUnits="userSpaceOnUse" x1="32.251034" y1="6.131708" x2="32.251034" y2="90.238609" gradientTransform="matrix(10.666667,0,0,-10.666667,0,1034.666667)">
<stop offset="0" style="stop-color:rgb(0%,0%,0%);stop-opacity:1;"/>
<stop offset="1" style="stop-color:rgb(0%,0%,0%);stop-opacity:0.588235;"/>
</linearGradient>
<clipPath id="clip5">
  <rect width="1024" height="1024"/>
</clipPath>
<g id="surface18" clip-path="url(#clip5)">
<path style=" stroke:none;fill-rule:nonzero;fill:url(#linear4);" d="M 128 970.667969 L 896 970.667969 C 931.347656 970.667969 960 942.011719 960 906.667969 L 960 138.667969 C 960 103.320312 931.347656 74.667969 896 74.667969 L 128 74.667969 C 92.652344 74.667969 64 103.320312 64 138.667969 L 64 906.667969 C 64 942.011719 92.652344 970.667969 128 970.667969 Z M 128 970.667969 "/>
</g>
<linearGradient id="linear5" gradientUnits="userSpaceOnUse" x1="48" y1="90" x2="48" y2="5.987717" gradientTransform="matrix(10.666667,0,0,10.666667,0,0)">
<stop offset="0" style="stop-color:rgb(15.686275%,31.764706%,47.058824%);stop-opacity:1;"/>
<stop offset="1" style="stop-color:rgb(30.980392%,45.882353%,60.392157%);stop-opacity:1;"/>
</linearGradient>
<mask id="mask5">
  <g filter="url(#alpha)">
<rect x="0" y="0" width="1024" height="1024" style="fill:rgb(0%,0%,0%);fill-opacity:0.25098;stroke:none;"/>
  </g>
</mask>
<linearGradient id="linear6" gradientUnits="userSpaceOnUse" x1="36.357143" y1="6" x2="36.357143" y2="63.893143" gradientTransform="matrix(10.666667,0,0,10.666667,0,0)">
<stop offset="0" style="stop-color:rgb(100%,100%,100%);stop-opacity:1;"/>
<stop offset="1" style="stop-color:rgb(100%,100%,100%);stop-opacity:0;"/>
</linearGradient>
<clipPath id="clip6">
  <rect width="1024" height="1024"/>
</clipPath>
<g id="surface22" clip-path="url(#clip6)">
<path style=" stroke:none;fill-rule:nonzero;fill:url(#linear6);" d="M 128 64 C 92.542969 64 64 92.542969 64 128 L 64 896 C 64 899.570312 64.441406 902.941406 65 906.332031 C 65.519531 909.488281 66.035156 912.699219 67 915.667969 C 67.105469 915.992188 67.222656 916.34375 67.332031 916.667969 C 68.386719 919.734375 69.839844 922.507812 71.332031 925.332031 C 72.875 928.25 74.699219 931.046875 76.667969 933.667969 C 78.632812 936.285156 80.652344 938.71875 83 941 C 87.691406 945.566406 93.058594 949.6875 99 952.667969 C 101.972656 954.15625 105.117188 955.300781 108.332031 956.332031 C 105.601562 955.265625 103.140625 953.8125 100.667969 952.332031 C 100.585938 952.285156 100.410156 952.382812 100.332031 952.332031 C 99.992188 952.128906 99.667969 951.878906 99.332031 951.667969 C 98.050781 950.847656 96.867188 949.921875 95.667969 949 C 94.535156 948.136719 93.390625 947.28125 92.332031 946.332031 C 90.433594 944.613281 88.628906 942.648438 87 940.667969 C 85.851562 939.277344 84.671875 937.835938 83.667969 936.332031 C 83.398438 935.925781 83.257812 935.417969 83 935 C 82.308594 933.902344 81.609375 932.820312 81 931.667969 C 79.921875 929.589844 78.804688 927.234375 78 925 C 77.914062 924.765625 77.75 924.566406 77.667969 924.332031 C 77.328125 923.351562 77.285156 922.339844 77 921.332031 C 76.675781 920.195312 76.25 919.167969 76 918 C 75.222656 914.355469 74.667969 910.550781 74.667969 906.667969 L 74.667969 138.667969 C 74.667969 108.992188 98.328125 85.332031 128 85.332031 L 896 85.332031 C 925.671875 85.332031 949.332031 108.992188 949.332031 138.667969 L 949.332031 906.667969 C 949.332031 910.550781 948.777344 914.355469 948 918 C 947.527344 920.207031 947.058594 922.242188 946.332031 924.332031 C 946.25 924.566406 946.085938 924.765625 946 925 C 945.332031 926.851562 944.523438 928.917969 943.667969 930.667969 C 943.222656 931.550781 942.824219 932.480469 942.332031 933.332031 C 941.75 934.371094 940.980469 935.34375 940.332031 936.332031 C 939.328125 937.835938 938.148438 939.277344 937 940.667969 C 935.472656 942.527344 933.765625 944.367188 932 946 C 931.878906 946.109375 931.785156 946.226562 931.667969 946.332031 C 930.191406 947.671875 928.625 948.832031 927 950 C 925.90625 950.78125 924.820312 951.636719 923.667969 952.332031 C 923.585938 952.382812 923.414062 952.285156 923.332031 952.332031 C 920.859375 953.8125 918.398438 955.265625 915.667969 956.332031 C 918.882812 955.300781 922.027344 954.15625 925 952.667969 C 930.941406 949.6875 936.308594 945.566406 941 941 C 943.347656 938.71875 945.367188 936.285156 947.332031 933.667969 C 949.300781 931.046875 951.125 928.25 952.667969 925.332031 C 954.160156 922.507812 955.613281 919.734375 956.667969 916.667969 C 956.777344 916.339844 956.894531 915.996094 957 915.667969 C 957.964844 912.699219 958.480469 909.488281 959 906.332031 C 959.558594 902.941406 960 899.570312 960 896 L 960 128 C 960 92.542969 931.457031 64 896 64 Z M 128 64 "/>
</g>
<mask id="mask6">
  <g filter="url(#alpha)">
<rect x="0" y="0" width="1024" height="1024" style="fill:rgb(0%,0%,0%);fill-opacity:0.14902;stroke:none;"/>
  </g>
</mask>
<radialGradient id="radial0" gradientUnits="userSpaceOnUse" cx="48" cy="90.171875" fx="48" fy="90.171875" r="42" gradientTransform="matrix(12.344671,0,0,10.623016,-80.544224,2.10272)">
<stop offset="0" style="stop-color:rgb(100%,100%,100%);stop-opacity:1;"/>
<stop offset="1" style="stop-color:rgb(100%,100%,100%);stop-opacity:0;"/>
</radialGradient>
<clipPath id="clip7">
  <rect width="1024" height="1024"/>
</clipPath>
<g id="surface25" clip-path="url(#clip7)">
<path style=" stroke:none;fill-rule:nonzero;fill:url(#radial0);" d="M 128 960 C 92.542969 960 64 931.457031 64 896 L 64 128 C 64 124.429688 64.441406 121.058594 65 117.667969 C 65.519531 114.511719 66.035156 111.300781 67 108.332031 C 67.105469 108.007812 67.222656 107.65625 67.332031 107.332031 C 68.386719 104.265625 69.839844 101.496094 71.332031 98.667969 C 72.875 95.75 74.699219 92.953125 76.667969 90.332031 C 78.632812 87.714844 80.652344 85.285156 83 83 C 87.691406 78.433594 93.058594 74.3125 99 71.332031 C 101.972656 69.84375 105.117188 68.699219 108.332031 67.667969 C 105.601562 68.734375 103.140625 70.1875 100.667969 71.667969 C 100.585938 71.710938 100.410156 71.625 100.332031 71.667969 C 99.992188 71.875 99.667969 72.121094 99.332031 72.332031 C 98.050781 73.152344 96.867188 74.078125 95.667969 75 C 94.535156 75.863281 93.390625 76.71875 92.332031 77.667969 C 90.433594 79.390625 88.628906 81.351562 87 83.332031 C 85.851562 84.722656 84.671875 86.164062 83.667969 87.667969 C 83.398438 88.078125 83.257812 88.582031 83 89 C 82.308594 90.097656 81.609375 91.183594 81 92.332031 C 79.921875 94.410156 78.804688 96.769531 78 99 C 77.914062 99.234375 77.75 99.433594 77.667969 99.667969 C 77.328125 100.648438 77.285156 101.660156 77 102.667969 C 76.675781 103.804688 76.25 104.832031 76 106 C 75.222656 109.644531 74.667969 113.449219 74.667969 117.332031 L 74.667969 885.332031 C 74.667969 915.007812 98.328125 938.667969 128 938.667969 L 896 938.667969 C 925.671875 938.667969 949.332031 915.007812 949.332031 885.332031 L 949.332031 117.332031 C 949.332031 113.449219 948.777344 109.644531 948 106 C 947.527344 103.792969 947.058594 101.757812 946.332031 99.667969 C 946.25 99.433594 946.085938 99.234375 946 99 C 945.332031 97.148438 944.523438 95.082031 943.667969 93.332031 C 943.222656 92.449219 942.824219 91.519531 942.332031 90.667969 C 941.75 89.628906 940.980469 88.65625 940.332031 87.667969 C 939.328125 86.164062 938.148438 84.722656 937 83.332031 C 935.472656 81.472656 933.765625 79.632812 932 78 C 931.878906 77.890625 931.785156 77.773438 931.667969 77.667969 C 930.191406 76.328125 928.625 75.167969 927 74 C 925.90625 73.222656 924.820312 72.363281 923.667969 71.667969 C 923.585938 71.625 923.414062 71.710938 923.332031 71.667969 C 920.859375 70.1875 918.398438 68.734375 915.667969 67.667969 C 918.882812 68.699219 922.027344 69.84375 925 71.332031 C 930.941406 74.3125 936.308594 78.433594 941 83 C 943.347656 85.285156 945.367188 87.714844 947.332031 90.332031 C 949.300781 92.953125 951.125 95.75 952.667969 98.667969 C 954.160156 101.496094 955.613281 104.265625 956.667969 107.332031 C 956.777344 107.664062 956.894531 108.003906 957 108.332031 C 957.964844 111.300781 958.480469 114.511719 959 117.667969 C 959.558594 121.058594 960 124.429688 960 128 L 960 896 C 960 931.457031 931.457031 960 896 960 Z M 128 960 "/>
</g>
<mask id="mask7">
  <g filter="url(#alpha)">
<rect x="0" y="0" width="1024" height="1024" style="fill:rgb(0%,0%,0%);fill-opacity:0.4;stroke:none;"/>
  </g>
</mask>
<radialGradient id="radial1" gradientUnits="userSpaceOnUse" cx="63.98003" cy="61.948856" fx="63.98003" fy="61.948856" r="58.01997" gradientTransform="matrix(11.626795,0,0,8.96478,-231.882688,-58.536716)">
<stop offset="0" style="stop-color:rgb(100%,100%,100%);stop-opacity:1;"/>
<stop offset="1" style="stop-color:rgb(100%,100%,100%);stop-opacity:0.427451;"/>
</radialGradient>
<clipPath id="clip8">
  <rect width="1024" height="1024"/>
</clipPath>
<g id="surface28" clip-path="url(#clip8)">
<path style=" stroke:none;fill-rule:nonzero;fill:url(#radial1);" d="M 386.921875 65.027344 C 404.523438 88.660156 388.121094 128.125 414.671875 127.734375 C 427.597656 146.007812 388.90625 133.183594 416.84375 147.269531 C 432.90625 159.917969 399.847656 167.148438 419.742188 178.5 C 396.8125 190.332031 423.457031 240.378906 440.488281 252.90625 C 468.519531 276.5 452.886719 202.949219 484.164062 199.121094 C 501.160156 179.722656 531.011719 167.269531 552.210938 147.75 C 531.492188 146.070312 519.394531 133.175781 539.015625 125.1875 C 575.125 162.1875 548.070312 107.667969 528.078125 99.035156 C 547.421875 92.882812 566.234375 97.386719 563.550781 81.429688 C 583.992188 66.476562 543.898438 61.648438 529.589844 65.027344 C 482.03125 65.027344 434.476562 65.027344 386.921875 65.027344 Z M 90.367188 80.464844 C 64.238281 87.90625 62.414062 150.347656 88.679688 115.675781 C 95.125 101.4375 124.914062 84.28125 90.367188 80.464844 Z M 212.464844 82.632812 C 197.398438 106.253906 214.648438 125.1875 227.183594 96.382812 C 236.054688 84.351562 220.59375 83.074219 212.464844 82.632812 Z M 250.105469 87.941406 C 221 101.429688 242.933594 132.882812 243.652344 139.878906 C 274.316406 150.484375 291.367188 132.945312 302.964844 162.921875 C 332.140625 179.734375 302.394531 208.949219 291.441406 216.558594 C 311.167969 199.378906 349.085938 263.257812 339.144531 229.511719 C 327.285156 220.851562 370.988281 243.417969 348.3125 215.28125 C 327.449219 181.667969 349.96875 200.234375 358.765625 208.078125 C 388.6875 181.253906 324.914062 178.011719 340.832031 150.40625 C 326.882812 139.109375 308.589844 104.886719 283.886719 111.574219 C 267.351562 132.957031 281.605469 64.984375 257.34375 99 C 256.085938 118.011719 256.886719 142.140625 249.816406 109.199219 C 245.078125 103.433594 257.964844 90.027344 250.105469 87.941406 Z M 190.746094 88.179688 C 171.210938 94.695312 172.261719 121.085938 196.28125 123.917969 C 204.511719 114.539062 199.550781 89.957031 190.746094 88.179688 Z M 114.496094 96.621094 C 89.121094 102.632812 99.480469 123.09375 107.25 128.855469 C 75.835938 136.722656 155.203125 138.910156 115.703125 143.894531 C 82.84375 157.015625 147.347656 172.476562 157.929688 156.917969 C 198.511719 166.839844 159.390625 124.4375 155.828125 101.449219 C 138.625 82.988281 155.152344 144.003906 139.597656 103.417969 C 134.167969 115.46875 116.914062 105.191406 114.496094 96.621094 Z M 920.910156 99.273438 C 886.855469 112.601562 942.074219 162.886719 928.351562 117.136719 C 926.984375 111.613281 931.425781 97.019531 920.910156 99.273438 Z M 209.808594 119.535156 C 185.339844 142.527344 240.914062 161.542969 202.78125 178.671875 C 197.0625 157.316406 187.226562 189.355469 165.410156 172.109375 C 127.910156 187.722656 108.730469 163.976562 77.332031 147.699219 C 58.472656 145.351562 65.558594 165.617188 64.308594 184.589844 C 64.308594 237.027344 64.308594 289.460938 64.308594 341.898438 C 82.800781 361.351562 71.523438 350.480469 64.308594 345.117188 C 74.457031 379.675781 59.832031 430.195312 99.835938 450.296875 C 106.636719 462.910156 135.175781 516.644531 136.492188 500.566406 C 122.183594 485.585938 107.503906 440.679688 131.714844 480.707031 C 153.394531 518.753906 182.644531 543.429688 225.371094 552.484375 C 248.730469 560.429688 267.945312 587.742188 288.488281 581.734375 C 300.105469 612.351562 254.0625 641.753906 290.03125 670.3125 C 308.8125 699.226562 340.339844 718.1875 323.269531 758.777344 C 311.332031 798.417969 316.445312 841.613281 306.121094 878.546875 C 302.914062 901.03125 337.460938 958.09375 334.464844 912.398438 C 344.550781 880.644531 344.285156 845.707031 368.039062 823.21875 C 400.542969 823.476562 374.253906 788.273438 406.515625 792.871094 C 426.203125 767.070312 431.90625 736.292969 465.128906 726.046875 C 469.097656 694.726562 520.367188 646.761719 467.402344 634.566406 C 453.003906 627.472656 415.941406 624.921875 418.773438 621.421875 C 424.511719 590.34375 370.84375 581.496094 348.007812 568.785156 C 318.027344 547.503906 272.976562 604.132812 262.414062 555.339844 C 256.109375 539.988281 233.066406 539.738281 243.65625 516.050781 C 224.570312 535.03125 187.238281 529.261719 197.011719 492.605469 C 211.855469 461.734375 268.855469 460.273438 278.570312 497.40625 C 265.085938 456.453125 304.640625 424.574219 326.597656 395.441406 C 331.070312 381.511719 357.632812 369.550781 348.492188 388.058594 C 364.066406 387.496094 387.675781 359.394531 360.007812 372.363281 C 359.613281 346.734375 335.761719 354.023438 328.027344 357.664062 C 342.359375 334.914062 415.972656 347.351562 385.148438 310.171875 C 361.261719 300.492188 363.25 244.023438 339.089844 275.484375 C 341.125 256.097656 289.917969 218.15625 291.035156 250.660156 C 297.285156 279.746094 292.175781 313.25 278.875 332.316406 C 276.097656 289.695312 203.402344 299.117188 212.746094 253.699219 C 226.289062 232.054688 242.113281 202.121094 243.617188 204.8125 C 267.886719 195.550781 287.402344 168.601562 259.277344 150.886719 C 257.773438 166.328125 238.125 198.183594 240.890625 159.652344 C 222.695312 181.222656 226.851562 125.332031 209.808594 119.535156 Z M 790.609375 134.488281 C 747.988281 144.910156 731.089844 185.617188 710.003906 219.332031 C 678.921875 233.34375 680.105469 293.515625 714.828125 274.296875 C 724.125 290.527344 708.328125 316.109375 735.398438 294.886719 C 757.234375 265.996094 739.214844 219.269531 776.375 201.050781 C 779.082031 215.214844 742.097656 268.109375 785.300781 259.417969 C 824.359375 260.890625 756.910156 263.308594 775.902344 288.253906 C 756.167969 276.542969 766.421875 320.230469 740.660156 310.0625 C 718.34375 322.203125 703.707031 304.425781 708.820312 284.957031 C 691.265625 295.195312 714.34375 324.089844 683.867188 325.824219 C 677.039062 350.066406 620.894531 346.410156 652.824219 371.09375 C 667 407.828125 600.007812 373.398438 619.027344 417.476562 C 635.296875 461.066406 669.398438 403.035156 683.234375 391.820312 C 709.925781 371.117188 749.480469 427.121094 725.460938 429.203125 C 752.394531 425.589844 746.859375 399.980469 725.28125 390.0625 C 713.625 359.839844 762.175781 404.886719 759.484375 420.039062 C 776.613281 452.113281 769.558594 387.203125 786.992188 415.941406 C 784.957031 446.253906 857.117188 423.066406 822.664062 461.703125 C 793.042969 467.667969 763.890625 454.066406 738.390625 462.777344 C 714.65625 462.570312 715.84375 437.214844 707.203125 430.863281 C 677.015625 433.316406 639.707031 433.039062 619.496094 457.425781 C 597.636719 487.410156 566.121094 529.324219 589.941406 567.609375 C 613.78125 624.34375 672.898438 570.550781 706.882812 604.058594 C 716.980469 618.027344 698.128906 634.632812 720.710938 649.765625 C 729.210938 682 711.066406 712.609375 731.9375 743.421875 C 742.730469 772.402344 749.425781 815.777344 789.597656 789.296875 C 832.113281 763.714844 820.789062 716.558594 855.871094 690.4375 C 828.113281 636.726562 889.828125 613.171875 905.226562 569.570312 C 871.585938 574.492188 841.613281 540.957031 833.484375 507.199219 C 819.351562 490.804688 822.992188 466.628906 838.777344 497.429688 C 860.476562 518.453125 860.945312 580.835938 901.085938 548.742188 C 919.4375 541.070312 969.550781 511.792969 929.621094 498.472656 C 903.882812 517.113281 875.484375 442.773438 913.28125 485.890625 C 940.757812 497.546875 960 504.492188 960 465.847656 C 960 361.726562 960 256.195312 960 151.367188 C 951.441406 160.113281 929.453125 176.265625 918.355469 165.535156 C 899.257812 168.191406 874.046875 205.347656 880.046875 169.429688 C 863.449219 168.332031 877.078125 201.632812 854.269531 202.566406 C 851.972656 219.6875 831.230469 205.734375 839.023438 221.992188 C 823.015625 210.640625 809.46875 174.796875 841.007812 197.292969 C 887.847656 183.246094 810.121094 151.554688 804.125 143.894531 C 814.207031 141.476562 793.152344 130.96875 790.609375 134.488281 Z M 404.054688 143.894531 C 388.464844 156.878906 433.691406 159.328125 404.054688 143.894531 Z M 195.816406 150.886719 C 178.378906 169.125 223.582031 167.652344 195.816406 150.886719 Z M 296.917969 168.976562 C 283.714844 190.601562 316.425781 176.960938 296.917969 168.976562 Z M 585.992188 194.539062 C 570.53125 212.335938 550.128906 189.855469 549.796875 205.152344 C 552.597656 209.773438 563.820312 242.757812 588.402344 218.417969 C 601.597656 212.855469 596.402344 198.832031 585.992188 194.539062 Z M 256.863281 205.152344 C 227.542969 230.753906 306.65625 233.113281 263.074219 208.085938 Z M 643.660156 276.058594 C 622.550781 289.820312 653.789062 319.050781 643.199219 332.785156 C 629.972656 355.828125 692.355469 331.160156 659.035156 312.773438 C 656.664062 296.980469 639.515625 277.707031 643.660156 276.058594 Z M 629.425781 303.792969 C 600.011719 312.105469 622.746094 355.035156 633.164062 314.601562 C 633.75 312.257812 634.542969 303.714844 629.425781 303.792969 Z M 393.917969 334.902344 C 366.558594 353.558594 389.667969 372.179688 409.722656 363.789062 C 405.605469 352.53125 394.105469 345.4375 393.917969 334.902344 Z M 910.777344 366.257812 C 924.429688 373.148438 885.757812 384.914062 910.246094 397.039062 C 924.496094 413.796875 919.121094 449.765625 895.960938 424.308594 C 900.261719 395.886719 864.5625 374.660156 910.777344 366.257812 Z M 840.558594 366.5 C 838.707031 384.757812 879.960938 413.144531 835.492188 403.878906 C 811.972656 406.640625 776.75 403.164062 806.378906 373.863281 C 815.738281 368.242188 840.320312 393.25 827.527344 369.875 C 832.0625 369.585938 836.285156 367.875 840.558594 366.5 Z M 704.707031 406.050781 C 687.554688 417.101562 716.570312 425.574219 704.707031 406.050781 Z M 273.996094 509.035156 C 271.101562 518.679688 328.246094 528.457031 288.8125 513 L 282.9375 510.933594 Z M 318.394531 522.78125 C 301.0625 540.375 354.101562 528.035156 318.394531 522.78125 Z M 897.988281 684.128906 C 860.324219 685.097656 865.332031 782.230469 891.585938 724.757812 C 894.074219 712.285156 904.054688 695.824219 897.988281 684.128906 Z M 897.988281 684.128906 "/>
</g>
<radialGradient id="radial2" gradientUnits="userSpaceOnUse" cx="49.233551" cy="70.608253" fx="49.233551" fy="70.608253" r="25.483549" gradientTransform="matrix(0.468112,-0.529116,1.79482,1.582167,-112.03757,-37.344561)">
<stop offset="0" style="stop-color:rgb(100%,100%,100%);stop-opacity:1;"/>
<stop offset="1" style="stop-color:rgb(100%,100%,100%);stop-opacity:0;"/>
</radialGradient>
<radialGradient id="radial3" gradientUnits="userSpaceOnUse" cx="64.230392" cy="68.449158" fx="64.230392" fy="68.449158" r="43.769611" gradientTransform="matrix(1.454443,0,0,0.926109,-45.079796,-12.6013)">
<stop offset="0" style="stop-color:rgb(100%,100%,100%);stop-opacity:1;"/>
<stop offset="1" style="stop-color:rgb(100%,100%,100%);stop-opacity:0;"/>
</radialGradient>
<radialGradient id="radial4" gradientUnits="userSpaceOnUse" cx="74.375" cy="67.125" fx="74.375" fy="67.125" r="3.125" gradientTransform="matrix(14.47725,0,0,14.458002,-781.527008,-574.630432)">
<stop offset="0" style="stop-color:rgb(100%,100%,100%);stop-opacity:1;"/>
<stop offset="0.306452" style="stop-color:rgb(100%,100%,100%);stop-opacity:1;"/>
<stop offset="0.518991" style="stop-color:rgb(100%,100%,100%);stop-opacity:0.639216;"/>
<stop offset="1" style="stop-color:rgb(100%,100%,100%);stop-opacity:0;"/>
</radialGradient>
<radialGradient id="radial5" gradientUnits="userSpaceOnUse" cx="74.375" cy="67.125" fx="74.375" fy="67.125" r="3.125" gradientTransform="matrix(11.461157,0,0,11.445918,-421.4808,-150.303136)">
<stop offset="0" style="stop-color:rgb(100%,100%,100%);stop-opacity:1;"/>
<stop offset="0.306452" style="stop-color:rgb(100%,100%,100%);stop-opacity:1;"/>
<stop offset="0.518991" style="stop-color:rgb(100%,100%,100%);stop-opacity:0.639216;"/>
<stop offset="1" style="stop-color:rgb(100%,100%,100%);stop-opacity:0;"/>
</radialGradient>
<radialGradient id="radial6" gradientUnits="userSpaceOnUse" cx="74.375" cy="67.125" fx="74.375" fy="67.125" r="3.125" gradientTransform="matrix(16.890126,0,0,16.867669,-568.892384,-772.147829)">
<stop offset="0" style="stop-color:rgb(100%,100%,100%);stop-opacity:1;"/>
<stop offset="0.306452" style="stop-color:rgb(100%,100%,100%);stop-opacity:1;"/>
<stop offset="0.518991" style="stop-color:rgb(100%,100%,100%);stop-opacity:0.639216;"/>
<stop offset="1" style="stop-color:rgb(100%,100%,100%);stop-opacity:0;"/>
</radialGradient>
<mask id="mask8">
  <g filter="url(#alpha)">
<rect x="0" y="0" width="1024" height="1024" style="fill:rgb(0%,0%,0%);fill-opacity:0.6;stroke:none;"/>
  </g>
</mask>
<radialGradient id="radial7" gradientUnits="userSpaceOnUse" cx="74.375" cy="67.125" fx="74.375" fy="67.125" r="3.125" gradientTransform="matrix(10.900638,0,0,10.886144,-166.780512,-180.50016)">
<stop offset="0" style="stop-color:rgb(100%,100%,100%);stop-opacity:1;"/>
<stop offset="0.306452" style="stop-color:rgb(100%,100%,100%);stop-opacity:1;"/>
<stop offset="0.518991" style="stop-color:rgb(100%,100%,100%);stop-opacity:0.639216;"/>
<stop offset="1" style="stop-color:rgb(100%,100%,100%);stop-opacity:0;"/>
</radialGradient>
<clipPath id="clip9">
  <rect width="1024" height="1024"/>
</clipPath>
<g id="surface31" clip-path="url(#clip9)">
<path style=" stroke:none;fill-rule:evenodd;fill:url(#radial7);" d="M 678.019531 550.230469 C 678.019531 569.019531 662.769531 584.25 643.953125 584.25 C 625.140625 584.25 609.890625 569.019531 609.890625 550.230469 C 609.890625 531.445312 625.140625 516.214844 643.953125 516.214844 C 662.769531 516.214844 678.019531 531.445312 678.019531 550.230469 Z M 678.019531 550.230469 "/>
</g>
<mask id="mask9">
  <g filter="url(#alpha)">
<rect x="0" y="0" width="1024" height="1024" style="fill:rgb(0%,0%,0%);fill-opacity:0.701961;stroke:none;"/>
  </g>
</mask>
<radialGradient id="radial8" gradientUnits="userSpaceOnUse" cx="74.375" cy="67.125" fx="74.375" fy="67.125" r="3.125" gradientTransform="matrix(9.521082,0,0,9.508423,-550.521248,-302.631605)">
<stop offset="0" style="stop-color:rgb(100%,100%,100%);stop-opacity:1;"/>
<stop offset="0.306452" style="stop-color:rgb(100%,100%,100%);stop-opacity:1;"/>
<stop offset="0.518991" style="stop-color:rgb(100%,100%,100%);stop-opacity:0.639216;"/>
<stop offset="1" style="stop-color:rgb(100%,100%,100%);stop-opacity:0;"/>
</radialGradient>
<clipPath id="clip10">
  <rect width="1024" height="1024"/>
</clipPath>
<g id="surface34" clip-path="url(#clip10)">
<path style=" stroke:none;fill-rule:evenodd;fill:url(#radial8);" d="M 187.363281 335.621094 C 187.363281 352.03125 174.042969 365.335938 157.609375 365.335938 C 141.175781 365.335938 127.855469 352.03125 127.855469 335.621094 C 127.855469 319.210938 141.175781 305.90625 157.609375 305.90625 C 174.042969 305.90625 187.363281 319.210938 187.363281 335.621094 Z M 187.363281 335.621094 "/>
</g>
<mask id="mask10">
  <g filter="url(#alpha)">
<rect x="0" y="0" width="1024" height="1024" style="fill:rgb(0%,0%,0%);fill-opacity:0.6;stroke:none;"/>
  </g>
</mask>
<radialGradient id="radial9" gradientUnits="userSpaceOnUse" cx="74.375" cy="67.125" fx="74.375" fy="67.125" r="3.125" gradientTransform="matrix(6.032188,0,0,6.024167,410.207115,34.789408)">
<stop offset="0" style="stop-color:rgb(100%,100%,100%);stop-opacity:1;"/>
<stop offset="0.306452" style="stop-color:rgb(100%,100%,100%);stop-opacity:1;"/>
<stop offset="0.518991" style="stop-color:rgb(100%,100%,100%);stop-opacity:0.639216;"/>
<stop offset="1" style="stop-color:rgb(100%,100%,100%);stop-opacity:0;"/>
</radialGradient>
<clipPath id="clip11">
  <rect width="1024" height="1024"/>
</clipPath>
<g id="surface37" clip-path="url(#clip11)">
<path style=" stroke:none;fill-rule:evenodd;fill:url(#radial9);" d="M 877.703125 439.160156 C 877.703125 449.558594 869.261719 457.988281 858.851562 457.988281 C 848.441406 457.988281 840 449.558594 840 439.160156 C 840 428.765625 848.441406 420.335938 858.851562 420.335938 C 869.261719 420.335938 877.703125 428.765625 877.703125 439.160156 Z M 877.703125 439.160156 "/>
</g>
<radialGradient id="radial10" gradientUnits="userSpaceOnUse" cx="63.875" cy="2.217348" fx="63.875" fy="2.217348" r="58.375" gradientTransform="matrix(1.094846,0,0,0.331175,-21.844872,32.792567)">
<stop offset="0" style="stop-color:rgb(100%,100%,100%);stop-opacity:1;"/>
<stop offset="1" style="stop-color:rgb(100%,100%,100%);stop-opacity:0;"/>
</radialGradient>
<mask id="mask11">
  <g filter="url(#alpha)">
<rect x="0" y="0" width="1024" height="1024" style="fill:rgb(0%,0%,0%);fill-opacity:0.6;stroke:none;"/>
  </g>
</mask>
<radialGradient id="radial11" gradientUnits="userSpaceOnUse" cx="69.75" cy="75.973572" fx="69.75" fy="75.973572" r="58.5" gradientTransform="matrix(2.259388,-0.0683204,0.00797869,0.263859,-105.95706,38.8624)">
<stop offset="0" style="stop-color:rgb(100%,100%,100%);stop-opacity:1;"/>
<stop offset="1" style="stop-color:rgb(100%,100%,100%);stop-opacity:0;"/>
</radialGradient>
<clipPath id="clip12">
  <rect width="1024" height="1024"/>
</clipPath>
<g id="surface40" clip-path="url(#clip12)">
<path style="fill:none;stroke-width:1.5;stroke-linecap:butt;stroke-linejoin:miter;stroke:url(#radial11);stroke-miterlimit:4;" d="M 7.176636 67.821167 C 58.426758 56.349609 89.176758 37.641724 89.176758 37.641724 " transform="matrix(10.666667,0,0,10.666667,0,0)"/>
</g>
<mask id="mask12">
  <g filter="url(#alpha)">
<rect x="0" y="0" width="1024" height="1024" style="fill:rgb(0%,0%,0%);fill-opacity:0.6;stroke:none;"/>
  </g>
</mask>
<radialGradient id="radial12" gradientUnits="userSpaceOnUse" cx="74.375" cy="67.125" fx="74.375" fy="67.125" r="3.125" gradientTransform="matrix(9.018364,0,0,9.006373,165.903275,-340.458315)">
<stop offset="0" style="stop-color:rgb(100%,100%,100%);stop-opacity:1;"/>
<stop offset="0.306452" style="stop-color:rgb(100%,100%,100%);stop-opacity:1;"/>
<stop offset="0.518991" style="stop-color:rgb(100%,100%,100%);stop-opacity:0.639216;"/>
<stop offset="1" style="stop-color:rgb(100%,100%,100%);stop-opacity:0;"/>
</radialGradient>
<clipPath id="clip13">
  <rect width="1024" height="1024"/>
</clipPath>
<g id="surface43" clip-path="url(#clip13)">
<path style=" stroke:none;fill-rule:evenodd;fill:url(#radial12);" d="M 864.828125 264.09375 C 864.828125 279.636719 852.207031 292.238281 836.644531 292.238281 C 821.078125 292.238281 808.460938 279.636719 808.460938 264.09375 C 808.460938 248.550781 821.078125 235.949219 836.644531 235.949219 C 852.207031 235.949219 864.828125 248.550781 864.828125 264.09375 Z M 864.828125 264.09375 "/>
</g>
<mask id="mask13">
  <g filter="url(#alpha)">
<rect x="0" y="0" width="1024" height="1024" style="fill:rgb(0%,0%,0%);fill-opacity:0.0509804;stroke:none;"/>
  </g>
</mask>
<clipPath id="clip14">
  <rect width="1024" height="1024"/>
</clipPath>
<g id="surface46" clip-path="url(#clip14)">
<path style=" stroke:none;fill-rule:nonzero;fill:rgb(0%,0%,0%);fill-opacity:1;" d="M 506 198.332031 C 424.839844 199.964844 351.820312 263.367188 339.332031 343.667969 C 339.332031 343.777344 339.332031 343.890625 339.332031 344 C 335.195312 376.128906 337.148438 407.445312 337 438 C 329.113281 438.46875 321.203125 439.71875 314 443.332031 C 303.242188 448.730469 293.984375 458.464844 290.332031 471.667969 C 290.191406 472.101562 290.082031 472.546875 290 473 C 286.265625 499.414062 289.113281 524.972656 288.332031 549 C 288.195312 550.585938 288.425781 552.183594 289 553.667969 C 291.375 558.964844 291.414062 564.042969 290.332031 571.332031 C 289.292969 578.351562 287.28125 587.128906 288.332031 597.332031 C 288.34375 597.640625 288.324219 598.023438 288.332031 598.332031 C 288.847656 616.007812 286.585938 635.441406 289.667969 655.667969 C 289.820312 656.355469 290.042969 657.023438 290.332031 657.667969 C 291.414062 660.613281 290.875 664.988281 289.667969 671.667969 C 288.523438 677.988281 286.945312 686.273438 288.332031 695.332031 C 288.410156 695.84375 288.234375 696.152344 288.332031 696.667969 C 289.117188 715.039062 285.296875 736.410156 291.667969 758.667969 C 291.769531 758.894531 291.882812 759.113281 292 759.332031 C 296.84375 772.195312 307.066406 780.695312 318 785 C 328.609375 789.179688 339.863281 789.894531 350.332031 789 C 350.652344 788.972656 351.015625 789.03125 351.332031 789 C 464.824219 788.871094 578.117188 789.121094 691.667969 788.667969 C 691.890625 788.671875 692.109375 788.671875 692.332031 788.667969 C 707.304688 787.558594 719.585938 779.078125 727 768 C 734.167969 757.289062 737.277344 744.015625 735.667969 731 C 735.652344 730.582031 735.675781 730.085938 735.667969 729.667969 C 735.15625 710.125 737.398438 689.207031 734.332031 667.332031 C 734.289062 666.65625 734.175781 665.988281 734 665.332031 C 732.910156 662.15625 733.144531 656.957031 734.332031 650 C 735.457031 643.40625 737.042969 635.15625 735.667969 626 C 735.644531 625.585938 735.683594 625.085938 735.667969 624.667969 C 734.96875 608.347656 737.480469 589.507812 732.667969 569.667969 C 732.671875 569.585938 732.660156 569.414062 732.667969 569.332031 C 733.3125 559.433594 737.273438 544.5 735.667969 528.667969 C 735.660156 528.5625 735.671875 528.4375 735.667969 528.332031 C 734.777344 510.566406 738.734375 489.816406 732.332031 468 C 732.230469 467.773438 732.117188 467.550781 732 467.332031 C 727.417969 455.339844 718.296875 446.921875 708 442.332031 C 701.3125 439.351562 694.101562 439.757812 687 439.332031 C 686.628906 404.664062 690.039062 368.132812 682 331.332031 C 681.890625 331.332031 681.777344 331.332031 681.667969 331.332031 C 663.9375 259.167969 598.648438 202.296875 523.667969 198.667969 C 523.546875 198.65625 523.453125 198.675781 523.332031 198.667969 C 517.3125 198.226562 511.628906 198.332031 506.332031 198.332031 C 506.222656 198.332031 506.109375 198.332031 506 198.332031 Z M 509 309.667969 C 509.109375 309.667969 509.222656 309.667969 509.332031 309.667969 C 537.96875 307.539062 564.992188 327.351562 573 354.667969 C 577.605469 378.265625 574.679688 404.320312 575.667969 431.667969 C 575.671875 431.78125 575.664062 431.886719 575.667969 432 C 575.679688 434.992188 575.628906 435.820312 575.667969 437.667969 L 448.332031 437.667969 C 448.425781 411.40625 447.457031 385.550781 449.332031 360.667969 C 449.71875 359.464844 450.105469 357.855469 450.667969 356 C 451.792969 352.292969 453.859375 346.964844 453.667969 347.332031 C 453.785156 347.113281 453.898438 346.894531 454 346.667969 C 463.710938 324.933594 484.980469 310.113281 509 309.667969 Z M 509 309.667969 "/>
</g>
<mask id="mask14">
  <g filter="url(#alpha)">
<rect x="0" y="0" width="1024" height="1024" style="fill:rgb(0%,0%,0%);fill-opacity:0.101961;stroke:none;"/>
  </g>
</mask>
<clipPath id="clip15">
  <rect width="1024" height="1024"/>
</clipPath>
<g id="surface49" clip-path="url(#clip15)">
<path style=" stroke:none;fill-rule:nonzero;fill:rgb(0%,0%,0%);fill-opacity:1;" d="M 506.332031 208.667969 C 430.558594 210.1875 361.390625 270.265625 349.734375 345.214844 C 345.351562 379.261719 348.109375 413.742188 347.332031 448 C 328.019531 445.648438 305.996094 453.917969 300.359375 474.292969 C 296.867188 499.011719 299.476562 524.347656 298.667969 549.332031 C 305.785156 565.207031 296.535156 579.996094 298.667969 596.996094 C 299.324219 615.960938 297.195312 635.210938 300.050781 653.957031 C 304.582031 666.277344 295.949219 680.605469 298.667969 694.757812 C 299.78125 715.070312 295.984375 736.089844 301.625 755.796875 C 309.109375 775.667969 331.34375 780.476562 350.238281 778.667969 C 464.089844 778.535156 577.949219 778.925781 691.789062 778.472656 C 714.960938 776.753906 728.546875 752.863281 725.332031 731.367188 C 724.65625 710.503906 726.839844 689.351562 723.949219 668.710938 C 719.617188 656.082031 728.046875 641.316406 725.332031 626.820312 C 724.257812 607.535156 727.941406 587.519531 722.464844 568.878906 C 723.167969 557.210938 726.769531 542.804688 725.332031 529.398438 C 724.292969 509.914062 727.914062 489.75 722.375 470.871094 C 715.324219 452.425781 694.757812 446.054688 676.667969 448 C 675.5 409.925781 680 371.300781 671.808594 333.8125 C 655.179688 266.121094 592.929688 212.289062 522.835938 209.046875 C 517.34375 208.621094 511.835938 208.664062 506.332031 208.667969 Z M 508.667969 299.332031 C 542.761719 296.800781 574.261719 320.203125 583.332031 352.667969 C 588.382812 378.546875 585.019531 405.394531 586 431.71875 C 586.035156 440.503906 588.902344 452.117188 576.03125 448 C 530.019531 448 484.011719 448 438 448 C 438.640625 417.871094 436.660156 387.511719 439.121094 357.53125 C 438.449219 361.273438 442.207031 346.378906 444.332031 342.332031 C 455.648438 317.003906 480.53125 299.859375 508.667969 299.332031 Z M 508.667969 299.332031 "/>
</g>
<mask id="mask15">
  <g filter="url(#alpha)">
<rect x="0" y="0" width="1024" height="1024" style="fill:rgb(0%,0%,0%);fill-opacity:0.14902;stroke:none;"/>
  </g>
</mask>
<clipPath id="clip16">
  <rect width="1024" height="1024"/>
</clipPath>
<g id="surface52" clip-path="url(#clip16)">
<path style=" stroke:none;fill-rule:nonzero;fill:rgb(0%,0%,0%);fill-opacity:1;" d="M 507.332031 220 C 505.792969 220.125 504.308594 220.277344 503.332031 220.332031 C 422.679688 224.792969 358.667969 291.609375 358.667969 373.332031 L 358.667969 459.332031 L 336 459.332031 C 321.804688 459.332031 310 471.140625 310 485.332031 L 310 549.332031 C 310 555.523438 312.972656 560.847656 316.667969 565.332031 C 312.972656 569.820312 310 575.144531 310 581.332031 L 310 645.332031 C 310 651.523438 312.972656 656.847656 316.667969 661.332031 C 312.972656 665.820312 310 671.144531 310 677.332031 L 310 741.332031 C 310 755.527344 321.804688 767.332031 336 767.332031 L 688 767.332031 C 702.195312 767.332031 714 755.527344 714 741.332031 L 714 677.332031 C 714 671.144531 711.027344 665.820312 707.332031 661.332031 C 711.027344 656.847656 714 651.523438 714 645.332031 L 714 581.332031 C 714 575.144531 711.027344 569.820312 707.332031 565.332031 C 711.027344 560.847656 714 555.523438 714 549.332031 L 714 485.332031 C 714 471.140625 702.195312 459.332031 688 459.332031 L 665.332031 459.332031 L 665.332031 373.332031 C 665.332031 321.289062 639.414062 275.386719 599.667969 247.667969 C 600.304688 248.109375 599.886719 247.269531 598 246 C 595.109375 244.046875 592.101562 242.433594 589.667969 241 C 589.539062 240.875 589.5 240.804688 589.332031 240.667969 C 588.003906 239.886719 587.785156 239.820312 588.667969 240.332031 C 588.429688 240.175781 588.621094 240.164062 588.332031 240 C 587.242188 239.375 586.019531 238.886719 585 238.332031 C 570.820312 230.628906 555.382812 225.246094 539 222.332031 C 529.960938 220.699219 521.054688 220 512 220 C 511.292969 220 510.621094 220 510 220 C 509.738281 219.988281 509.871094 220.003906 509.667969 220 C 508.847656 219.984375 508.234375 219.996094 508.332031 220 C 508 219.984375 507.667969 219.984375 507.332031 220 Z M 508.332031 288 C 509.132812 287.96875 510.402344 288 512 288 C 530.183594 288 546.402344 293.226562 560 302.332031 L 560.332031 302.332031 C 560.746094 302.550781 561.996094 303.332031 562 303.332031 C 562.953125 304.035156 563.878906 304.789062 565 305.667969 C 578.585938 316.582031 588.769531 331.605469 594 349.332031 C 594.5 351.128906 595.0625 352.449219 595.332031 353.667969 C 595.332031 353.777344 595.332031 353.890625 595.332031 354 C 595.101562 353.046875 595.160156 353.679688 595.667969 356 C 596.332031 359.382812 596.816406 361.664062 597 363.332031 C 597.296875 366.074219 597.332031 369.53125 597.332031 373.332031 L 597.332031 459.332031 L 426.667969 459.332031 L 426.667969 373.332031 C 426.667969 370.28125 426.761719 367.554688 427 365 C 427.179688 363.054688 427.167969 362.917969 427 364.667969 C 427.191406 362.671875 427.171875 362.558594 427 364.332031 C 427.195312 362.355469 427.300781 360.464844 427.667969 358.332031 C 427.6875 358.214844 427.644531 358.121094 427.667969 358 C 427.667969 357.890625 427.667969 357.777344 427.667969 357.667969 C 427.222656 360.1875 427.414062 359.796875 428 356.667969 C 428.449219 354.242188 429.269531 351.9375 430 349.332031 C 430.070312 349.101562 429.949219 349.214844 430 349 C 429.875 349.445312 430.019531 349.058594 430.332031 348 C 431.101562 345.40625 431.65625 343.421875 432.332031 341.667969 C 432.464844 341.390625 432.542969 341.652344 432.667969 341.332031 C 433.277344 339.820312 433.382812 339.414062 433 340.332031 C 433.808594 338.328125 434.703125 336.273438 435.667969 334.332031 C 434.984375 335.707031 435.4375 334.691406 436 333.667969 C 439.871094 326.214844 444.867188 319.425781 450.332031 313.667969 C 450.40625 313.597656 450.359375 313.3125 450.667969 313 C 451.734375 311.898438 452.773438 310.839844 453.667969 310 C 452.703125 310.882812 453.277344 310.527344 455 309 C 454.902344 309.085938 455.246094 308.921875 456.332031 308 C 456.445312 308 456.554688 308 456.667969 308 C 458.171875 306.695312 458.222656 306.253906 457.332031 307 C 457.785156 306.628906 458.144531 306.078125 458.667969 305.667969 C 458.777344 305.667969 458.890625 305.667969 459 305.667969 C 458.253906 306.265625 458.960938 305.859375 459.667969 305.332031 L 459.667969 305 C 461.511719 303.558594 462.507812 302.640625 462 303 C 462.097656 302.929688 463.457031 302.40625 465.667969 301 C 466.464844 300.496094 466.851562 300.21875 466.667969 300.332031 C 467.9375 299.546875 469.15625 298.816406 470.667969 298 C 473.441406 296.511719 476.066406 295.390625 478.667969 294.332031 C 479.203125 294.113281 479.964844 293.71875 481 293.332031 C 482.6875 292.703125 484.789062 292.230469 486.667969 291.667969 C 488.472656 291.125 489.324219 290.667969 489.332031 290.667969 C 488.253906 290.953125 488.773438 290.875 491 290.332031 C 491.695312 290.164062 491.542969 290.183594 492 290 C 491.585938 290.144531 491.78125 290.125 494 289.667969 C 494.5 289.5625 494.277344 289.457031 494.667969 289.332031 C 491.074219 290.03125 491.191406 290.074219 495 289.332031 C 497.722656 288.800781 499.746094 288.578125 502 288.332031 C 503.527344 288.167969 505.714844 288.101562 508.332031 288 Z M 508.332031 288 "/>
</g>
<mask id="mask16">
  <g filter="url(#alpha)">
<rect x="0" y="0" width="1024" height="1024" style="fill:rgb(0%,0%,0%);fill-opacity:0.301961;stroke:none;"/>
  </g>
</mask>
<clipPath id="clip17">
  <rect width="1024" height="1024"/>
</clipPath>
<g id="surface55" clip-path="url(#clip17)">
<path style=" stroke:none;fill-rule:nonzero;fill:rgb(0%,0%,0%);fill-opacity:1;" d="M 508 230 C 506.675781 230.105469 505.351562 230.257812 504 230.332031 C 428.496094 234.507812 368.667969 296.785156 368.667969 373.332031 L 368.667969 469.332031 L 336 469.332031 C 327.136719 469.332031 320 476.46875 320 485.332031 L 320 549.332031 C 320 558.199219 327.136719 565.332031 336 565.332031 C 327.136719 565.332031 320 572.46875 320 581.332031 L 320 645.332031 C 320 654.199219 327.136719 661.332031 336 661.332031 C 327.136719 661.332031 320 668.46875 320 677.332031 L 320 741.332031 C 320 750.199219 327.136719 757.332031 336 757.332031 L 688 757.332031 C 696.863281 757.332031 704 750.199219 704 741.332031 L 704 677.332031 C 704 668.46875 696.863281 661.332031 688 661.332031 C 696.863281 661.332031 704 654.199219 704 645.332031 L 704 581.332031 C 704 572.46875 696.863281 565.332031 688 565.332031 C 696.863281 565.332031 704 558.199219 704 549.332031 L 704 485.332031 C 704 476.46875 696.863281 469.332031 688 469.332031 L 655.332031 469.332031 L 655.332031 373.332031 C 655.332031 324.566406 631.179688 281.597656 594 255.667969 C 593.425781 255.269531 592.914062 254.722656 592.332031 254.332031 C 589.898438 252.6875 587.207031 251.164062 584.667969 249.667969 C 584.535156 249.589844 584.464844 249.410156 584.332031 249.332031 C 584.121094 249.210938 583.878906 249.121094 583.667969 249 C 583.539062 248.925781 583.460938 248.738281 583.332031 248.667969 C 582.355469 248.105469 581.324219 247.539062 580.332031 247 C 567.085938 239.804688 552.683594 234.730469 537.332031 232 C 529.066406 230.503906 520.667969 230 512 230 C 511.203125 230 510.4375 230.003906 509.667969 230 C 509.109375 229.976562 508.558594 230.015625 508 230 Z M 508 278 C 509.324219 277.949219 510.660156 278 512 278 C 532.097656 278 550.449219 283.808594 565.667969 294 C 565.746094 294.054688 565.921875 293.945312 566 294 C 567.859375 295.253906 569.574219 296.621094 571.332031 298 C 586.507812 310.195312 597.875 327.035156 603.667969 346.667969 C 604.128906 348.324219 604.625 349.972656 605 351.667969 C 605.183594 352.421875 605.167969 353.238281 605.332031 354 C 605.878906 356.761719 606.6875 359.488281 607 362.332031 C 607.390625 365.914062 607.332031 369.632812 607.332031 373.332031 L 607.332031 469.332031 L 416.667969 469.332031 L 416.667969 373.332031 C 416.667969 370.179688 416.714844 367.066406 417 364 C 417.011719 363.890625 416.988281 363.777344 417 363.667969 C 417.011719 363.554688 416.988281 363.445312 417 363.332031 C 417.238281 360.894531 417.585938 358.707031 418 356.332031 C 418.019531 356.226562 417.980469 356.105469 418 356 C 418.058594 355.660156 418.269531 355.339844 418.332031 355 C 418.863281 352.152344 419.566406 349.410156 420.332031 346.667969 C 420.363281 346.5625 420.300781 346.4375 420.332031 346.332031 C 420.429688 345.992188 420.566406 345.675781 420.667969 345.332031 C 421.398438 342.863281 422.082031 340.378906 423 338 C 423.054688 337.863281 423.28125 337.804688 423.332031 337.667969 C 423.464844 337.339844 423.53125 336.992188 423.667969 336.667969 C 424.578125 334.410156 425.59375 332.164062 426.667969 330 C 426.84375 329.640625 427.152344 329.355469 427.332031 329 C 431.574219 320.835938 436.796875 313.207031 443 306.667969 C 443.222656 306.4375 443.441406 306.226562 443.667969 306 C 444.742188 304.886719 445.871094 303.726562 447 302.667969 C 447.410156 302.289062 447.917969 302.035156 448.332031 301.667969 C 448.871094 301.1875 449.449219 300.796875 450 300.332031 C 450.351562 300.027344 450.644531 299.632812 451 299.332031 C 451.542969 298.886719 452.113281 298.433594 452.667969 298 C 452.980469 297.75 453.351562 297.582031 453.667969 297.332031 C 454.597656 296.621094 455.375 295.675781 456.332031 295 C 457.585938 294.113281 459.035156 293.492188 460.332031 292.667969 C 460.675781 292.449219 460.988281 292.210938 461.332031 292 C 462.859375 291.058594 464.417969 290.1875 466 289.332031 C 468.917969 287.769531 471.898438 286.261719 475 285 C 475.871094 284.644531 476.78125 284.332031 477.667969 284 C 479.625 283.265625 481.644531 282.609375 483.667969 282 C 484.671875 281.699219 485.644531 281.269531 486.667969 281 C 487.304688 280.832031 488.023438 280.824219 488.667969 280.667969 C 488.898438 280.609375 489.097656 280.386719 489.332031 280.332031 C 490.21875 280.125 491.105469 280.183594 492 280 C 492.238281 279.949219 492.429688 279.714844 492.667969 279.667969 C 492.777344 279.644531 492.890625 279.6875 493 279.667969 C 495.703125 279.136719 498.214844 278.636719 501 278.332031 C 503.285156 278.085938 505.664062 278.089844 508 278 Z M 508 278 "/>
</g>
<linearGradient id="linear7" gradientUnits="userSpaceOnUse" x1="48" y1="36" x2="56.96875" y2="36" spreadMethod="reflect" gradientTransform="matrix(16,0,0,16,-256,-149.333333)">
<stop offset="0" style="stop-color:rgb(79.607843%,79.607843%,79.607843%);stop-opacity:1;"/>
<stop offset="1" style="stop-color:rgb(93.72549%,93.72549%,93.72549%);stop-opacity:1;"/>
</linearGradient>
<mask id="mask17">
  <g filter="url(#alpha)">
<rect x="0" y="0" width="1024" height="1024" style="fill:rgb(0%,0%,0%);fill-opacity:0.101961;stroke:none;"/>
  </g>
</mask>
<clipPath id="clip18">
  <rect width="1024" height="1024"/>
</clipPath>
<g id="surface58" clip-path="url(#clip18)">
<path style=" stroke:none;fill-rule:nonzero;fill:rgb(0%,0%,0%);fill-opacity:1;" d="M 512 250.667969 C 449.953125 250.667969 400 300.617188 400 362.667969 L 400 554.667969 C 400 565.257812 401.777344 575.46875 404.5 585.167969 C 430.800781 615.152344 468.980469 634.167969 512 634.167969 C 555.019531 634.167969 593.199219 615.152344 619.5 585.167969 C 622.222656 575.46875 624 565.257812 624 554.667969 L 624 362.667969 C 624 300.617188 574.046875 250.667969 512 250.667969 Z M 512 267.167969 C 565.589844 267.167969 607.5 309.074219 607.5 362.667969 L 607.5 490.667969 C 607.5 544.257812 565.589844 586.167969 512 586.167969 C 458.410156 586.167969 416.5 544.257812 416.5 490.667969 L 416.5 362.667969 C 416.5 309.074219 458.410156 267.167969 512 267.167969 Z M 512 267.167969 "/>
</g>
<mask id="mask18">
  <g filter="url(#alpha)">
<rect x="0" y="0" width="1024" height="1024" style="fill:rgb(0%,0%,0%);fill-opacity:0.2;stroke:none;"/>
  </g>
</mask>
<clipPath id="clip19">
  <rect width="1024" height="1024"/>
</clipPath>
<g id="surface61" clip-path="url(#clip19)">
<path style=" stroke:none;fill-rule:nonzero;fill:rgb(0%,0%,0%);fill-opacity:1;" d="M 512 260.300781 C 455.410156 260.300781 409.792969 307.464844 409.792969 365.972656 L 409.792969 555.589844 C 409.792969 564.972656 411.796875 573.949219 414.089844 582.75 C 438.296875 610.851562 472.75 629.167969 512 629.167969 C 551.25 629.167969 585.703125 610.851562 609.910156 582.75 C 612.203125 573.949219 614.207031 564.972656 614.207031 555.589844 L 614.207031 365.972656 C 614.207031 307.464844 568.589844 260.300781 512 260.300781 Z M 512 266.71875 C 565.792969 266.71875 608 310.355469 608 365.972656 L 608 492.382812 C 608 548 565.792969 591.636719 512 591.636719 C 458.207031 591.636719 416 548 416 492.382812 L 416 365.972656 C 416 310.355469 458.207031 266.71875 512 266.71875 Z M 512 266.71875 "/>
</g>
<mask id="mask19">
  <g filter="url(#alpha)">
<rect x="0" y="0" width="1024" height="1024" style="fill:rgb(0%,0%,0%);fill-opacity:0.2;stroke:none;"/>
  </g>
</mask>
<linearGradient id="linear8" gradientUnits="userSpaceOnUse" x1="39.03125" y1="35.984375" x2="47.230457" y2="24.974846" gradientTransform="matrix(16,0,0,16,-256,-149.333333)">
<stop offset="0" style="stop-color:rgb(0%,0%,0%);stop-opacity:1;"/>
<stop offset="1" style="stop-color:rgb(0%,0%,0%);stop-opacity:0;"/>
</linearGradient>
<clipPath id="clip20">
  <rect width="1024" height="1024"/>
</clipPath>
<g id="surface64" clip-path="url(#clip20)">
<path style=" stroke:none;fill-rule:nonzero;fill:url(#linear8);" d="M 512 219.167969 C 432.75 219.167969 368.5 283.417969 368.5 362.667969 L 368.5 490.667969 C 368.5 567.523438 429.066406 629.945312 505 633.667969 C 432.640625 626.429688 376 565.824219 376 492.667969 L 376 366.667969 C 376 288.632812 440.25 225.667969 519.5 225.667969 C 550.882812 225.667969 579.878906 235.335938 603.5 252.167969 C 578.695312 231.695312 546.671875 219.167969 512 219.167969 Z M 573.5 288.667969 C 594.472656 306.042969 607.5 332.660156 607.5 362.667969 L 607.5 490.667969 C 607.5 544.257812 565.589844 586.167969 512 586.167969 C 509.152344 586.167969 506.277344 585.898438 503.5 585.667969 C 508.691406 586.496094 514.03125 586.667969 519.5 586.667969 C 573.089844 586.667969 615 545.4375 615 492.667969 L 615 366.667969 C 615 333.6875 598.863281 305.394531 573.5 288.667969 Z M 573.5 288.667969 "/>
</g>
<mask id="mask20">
  <g filter="url(#alpha)">
<rect x="0" y="0" width="1024" height="1024" style="fill:rgb(0%,0%,0%);fill-opacity:0.101961;stroke:none;"/>
  </g>
</mask>
<clipPath id="clip21">
  <rect width="1024" height="1024"/>
</clipPath>
<g id="surface67" clip-path="url(#clip21)">
<path style=" stroke:none;fill-rule:nonzero;fill:rgb(0%,0%,0%);fill-opacity:1;" d="M 512 219.167969 C 432.75 219.167969 368.5 283.417969 368.5 362.667969 L 368.5 490.667969 L 381 490.667969 L 381 362.667969 C 381 285.636719 441.820312 222.625 518 219.167969 C 515.972656 219.082031 514.046875 219.167969 512 219.167969 Z M 512 219.167969 "/>
</g>
<mask id="mask21">
  <g filter="url(#alpha)">
<rect x="0" y="0" width="1024" height="1024" style="fill:rgb(0%,0%,0%);fill-opacity:0.14902;stroke:none;"/>
  </g>
</mask>
<linearGradient id="linear9" gradientUnits="userSpaceOnUse" x1="56.727566" y1="37.282234" x2="48.758419" y2="23.479269" gradientTransform="matrix(16,0,0,16,-256,-149.333333)">
<stop offset="0" style="stop-color:rgb(0%,0%,0%);stop-opacity:1;"/>
<stop offset="1" style="stop-color:rgb(0%,0%,0%);stop-opacity:0;"/>
</linearGradient>
<clipPath id="clip22">
  <rect width="1024" height="1024"/>
</clipPath>
<g id="surface70" clip-path="url(#clip22)">
<path style=" stroke:none;fill-rule:nonzero;fill:url(#linear9);" d="M 512 219.167969 C 509.265625 219.167969 506.699219 219.515625 504 219.667969 C 579.457031 223.890625 639.5 286.152344 639.5 362.667969 L 639.5 490.667969 C 639.5 567.179688 579.457031 629.441406 504 633.667969 C 506.699219 633.816406 509.265625 634.167969 512 634.167969 C 591.25 634.167969 655.5 569.917969 655.5 490.667969 L 655.5 362.667969 C 655.5 283.417969 591.25 219.167969 512 219.167969 Z M 496 267.167969 C 442.410156 267.167969 400.5 309.074219 400.5 362.667969 L 400.5 490.667969 C 400.5 544.257812 442.410156 586.167969 496 586.167969 C 498.011719 586.167969 500.023438 585.785156 502 585.667969 C 453.238281 580.867188 416.5 540.910156 416.5 490.667969 L 416.5 362.667969 C 416.5 312.425781 453.238281 272.46875 502 267.667969 C 500.023438 267.550781 498.011719 267.167969 496 267.167969 Z M 496 267.167969 "/>
</g>
<mask id="mask22">
  <g filter="url(#alpha)">
<rect x="0" y="0" width="1024" height="1024" style="fill:rgb(0%,0%,0%);fill-opacity:0.2;stroke:none;"/>
  </g>
</mask>
<clipPath id="clip23">
  <rect width="1024" height="1024"/>
</clipPath>
<g id="surface73" clip-path="url(#clip23)">
<path style=" stroke:none;fill-rule:nonzero;fill:rgb(0%,0%,0%);fill-opacity:1;" d="M 508 219.167969 C 585.125 221.589844 647 284.953125 647 362.667969 L 647 490.667969 C 647 568.382812 585.125 631.742188 508 634.167969 C 509.355469 634.203125 510.636719 634.167969 512 634.167969 C 591.25 634.167969 655.5 569.917969 655.5 490.667969 L 655.5 362.667969 C 655.5 283.417969 591.25 219.167969 512 219.167969 C 510.636719 219.167969 509.355469 219.128906 508 219.167969 Z M 503.5 267.167969 C 449.910156 267.167969 408 309.074219 408 362.667969 L 408 490.667969 C 408 544.257812 449.910156 586.167969 503.5 586.167969 C 505.003906 586.167969 506.515625 586.234375 508 586.167969 C 456.332031 584.148438 416.5 542.921875 416.5 490.667969 L 416.5 362.667969 C 416.5 310.410156 456.332031 269.1875 508 267.167969 C 506.515625 267.101562 505.003906 267.167969 503.5 267.167969 Z M 503.5 267.167969 "/>
</g>
<mask id="mask23">
  <g filter="url(#alpha)">
<rect x="0" y="0" width="1024" height="1024" style="fill:rgb(0%,0%,0%);fill-opacity:0.301961;stroke:none;"/>
  </g>
</mask>
<clipPath id="clip24">
  <rect width="1024" height="1024"/>
</clipPath>
<g id="surface76" clip-path="url(#clip24)">
<path style=" stroke:none;fill-rule:nonzero;fill:rgb(100%,100%,100%);fill-opacity:1;" d="M 511.5 242.667969 L 524 243.167969 L 524.5 243.167969 L 536 245.167969 L 536.5 245.167969 L 547.5 248.167969 L 548 248.167969 L 558.5 251.667969 L 559 252.167969 L 569 256.667969 L 569.5 257.167969 L 579 262.667969 L 579.5 263.167969 L 582 265.167969 L 589.5 266.667969 L 594.5 261.167969 L 593 253.667969 L 591.5 252.667969 L 588.5 250.167969 L 588 249.667969 L 577.5 243.167969 L 576.5 242.667969 L 565.5 237.667969 L 564.5 237.167969 L 553 232.667969 L 552 232.667969 L 540 229.667969 L 539 229.167969 L 526.5 227.167969 L 525.5 227.167969 L 512.5 226.667969 C 497.199219 225.597656 494.0625 244.089844 511.5 242.667969 Z M 447.5 242.667969 L 446.5 243.167969 L 436 249.667969 L 435.5 250.167969 L 425.5 257.167969 L 425 257.667969 L 416 266.167969 L 415.5 266.667969 L 407 275.667969 L 406.5 276.167969 L 399.5 286.167969 L 399 286.667969 L 392.5 297.167969 L 392 298.167969 L 387.5 308.167969 L 387.5 315.667969 L 394 319.667969 L 401 316.667969 L 402 314.667969 L 406 305.667969 L 406.5 305.167969 L 412 295.667969 L 412.5 295.167969 L 419 286.667969 L 419.5 286.167969 L 427 278.167969 L 427.5 278.167969 L 427.5 277.667969 L 435.5 270.167969 L 436 269.667969 L 444.5 263.167969 L 445 262.667969 L 454.5 257.167969 L 455 256.667969 L 464.5 252.667969 C 475.886719 245.195312 464 234.667969 457.5 238.167969 Z M 447.5 242.667969 "/>
</g>
<mask id="mask24">
  <g filter="url(#alpha)">
<rect x="0" y="0" width="1024" height="1024" style="fill:rgb(0%,0%,0%);fill-opacity:0.6;stroke:none;"/>
  </g>
</mask>
<clipPath id="clip25">
  <rect width="1024" height="1024"/>
</clipPath>
<g id="surface79" clip-path="url(#clip25)">
<path style=" stroke:none;fill-rule:nonzero;fill:rgb(100%,100%,100%);fill-opacity:1;" d="M 512.5 229.667969 C 506.109375 229.222656 503.285156 232.785156 503 235.167969 C 502.859375 236.359375 502.886719 237.285156 504 238.167969 C 505.113281 239.046875 507.179688 239.980469 511 239.667969 C 511.167969 239.652344 511.332031 239.652344 511.5 239.667969 L 524 240.167969 L 524.5 240.167969 C 524.667969 240.152344 524.832031 240.152344 525 240.167969 L 536 242.167969 L 536.5 242.167969 C 536.667969 242.152344 536.832031 242.152344 537 242.167969 C 537.167969 242.152344 537.332031 242.152344 537.5 242.167969 L 547.5 245.167969 L 548.5 245.167969 C 548.667969 245.152344 548.832031 245.152344 549 245.167969 L 559.5 248.667969 C 559.859375 248.773438 560.199219 248.941406 560.5 249.167969 L 570.5 253.667969 C 570.683594 253.8125 570.851562 253.980469 571 254.167969 C 571.011719 254.332031 571.011719 254.5 571 254.667969 L 571.5 255.167969 L 580.5 260.167969 C 580.667969 260.152344 580.832031 260.152344 581 260.167969 C 581.011719 260.332031 581.011719 260.5 581 260.667969 L 581.5 260.667969 L 583.5 262.167969 L 584 262.667969 L 588 263.167969 L 591 260.167969 L 590 255.167969 C 589.832031 255.179688 589.667969 255.179688 589.5 255.167969 L 586.5 252.667969 C 586.488281 252.5 586.488281 252.332031 586.5 252.167969 L 586 251.667969 L 576 245.667969 L 576 246.167969 L 575 245.667969 L 564 240.667969 L 563.5 240.167969 L 563 240.167969 L 552 235.667969 C 551.832031 235.679688 551.667969 235.679688 551.5 235.667969 C 551.332031 235.679688 551.167969 235.679688 551 235.667969 L 539 232.667969 C 538.832031 232.679688 538.667969 232.679688 538.5 232.667969 L 537.5 232.167969 L 526.5 230.167969 L 525.5 230.167969 Z M 459 240.667969 C 459.011719 240.832031 459.011719 241 459 241.167969 L 449 245.667969 L 448 246.167969 L 448 245.667969 L 438 251.667969 L 437.5 252.167969 C 437.511719 252.332031 437.511719 252.5 437.5 252.667969 L 427.5 259.667969 L 427 259.667969 C 427.011719 259.832031 427.011719 260 427 260.167969 L 418 268.667969 L 409.5 277.667969 C 409.332031 277.679688 409.167969 277.679688 409 277.667969 L 409 278.167969 L 402 288.167969 C 401.832031 288.179688 401.667969 288.179688 401.5 288.167969 L 401 288.667969 L 395 298.667969 L 395.5 298.667969 L 395 299.667969 L 390.5 309.667969 L 390.5 314.167969 L 394 316.167969 L 398.5 314.167969 L 399 313.167969 L 403 304.167969 C 403.148438 303.980469 403.316406 303.8125 403.5 303.667969 C 403.667969 303.652344 403.832031 303.652344 404 303.667969 L 404.5 303.167969 L 409.5 294.167969 C 409.488281 294 409.488281 293.832031 409.5 293.667969 C 409.667969 293.652344 409.832031 293.652344 410 293.667969 L 410 293.167969 L 416.5 284.667969 C 416.667969 284.652344 416.832031 284.652344 417 284.667969 L 417 284.167969 L 424.5 276.667969 C 424.488281 276.5 424.488281 276.332031 424.5 276.167969 C 424.648438 275.980469 424.816406 275.8125 425 275.667969 C 425.167969 275.652344 425.332031 275.652344 425.5 275.667969 C 425.488281 275.5 425.488281 275.332031 425.5 275.167969 L 426 275.167969 L 433.5 267.667969 L 434 267.667969 C 433.988281 267.5 433.988281 267.332031 434 267.167969 L 442.5 260.667969 L 443 260.667969 C 443.148438 260.480469 443.316406 260.3125 443.5 260.167969 L 452.5 255.167969 L 453 254.667969 C 453.253906 254.261719 453.59375 253.917969 454 253.667969 L 463 250.167969 C 463.332031 249.949219 463.230469 249.875 463.5 249.667969 C 465.152344 248.386719 465.832031 247.027344 466 246.167969 C 466.195312 245.167969 465.761719 244.179688 465 243.167969 C 464.238281 242.15625 463.230469 241.074219 462 240.667969 C 460.769531 240.261719 459.703125 240.289062 459 240.667969 Z M 459 240.667969 "/>
</g>
<linearGradient id="linear10" gradientUnits="userSpaceOnUse" x1="48" y1="41" x2="60" y2="41" spreadMethod="reflect" gradientTransform="matrix(16,0,0,16,-256,-149.333333)">
<stop offset="0" style="stop-color:rgb(90.196078%,78.823529%,29.803922%);stop-opacity:1;"/>
<stop offset="0.578323" style="stop-color:rgb(90.588235%,80.784314%,37.254902%);stop-opacity:1;"/>
<stop offset="0.833333" style="stop-color:rgb(94.117647%,87.058824%,57.647059%);stop-opacity:1;"/>
<stop offset="0.916667" style="stop-color:rgb(81.568627%,71.372549%,29.803922%);stop-opacity:1;"/>
<stop offset="1" style="stop-color:rgb(56.470588%,49.019608%,18.039216%);stop-opacity:1;"/>
</linearGradient>
<mask id="mask25">
  <g filter="url(#alpha)">
<rect x="0" y="0" width="1024" height="1024" style="fill:rgb(0%,0%,0%);fill-opacity:0.301961;stroke:none;"/>
  </g>
</mask>
<clipPath id="clip26">
  <rect width="1024" height="1024"/>
</clipPath>
<g id="surface82" clip-path="url(#clip26)">
<path style=" stroke:none;fill-rule:nonzero;fill:rgb(100%,100%,100%);fill-opacity:1;" d="M 336 458.667969 C 327.136719 458.667969 320 465.800781 320 474.667969 L 320 490.667969 C 320 481.800781 327.136719 474.667969 336 474.667969 L 688 474.667969 C 696.863281 474.667969 704 481.800781 704 490.667969 L 704 474.667969 C 704 465.800781 696.863281 458.667969 688 458.667969 Z M 336 458.667969 "/>
</g>
<mask id="mask26">
  <g filter="url(#alpha)">
<rect x="0" y="0" width="1024" height="1024" style="fill:rgb(0%,0%,0%);fill-opacity:0.14902;stroke:none;"/>
  </g>
</mask>
<clipPath id="clip27">
  <rect width="1024" height="1024"/>
</clipPath>
<g id="surface85" clip-path="url(#clip27)">
<path style=" stroke:none;fill-rule:nonzero;fill:rgb(62.745098%,35.294118%,17.254902%);fill-opacity:1;" d="M 320 522.667969 L 320 538.667969 C 320 547.53125 327.136719 554.667969 336 554.667969 L 688 554.667969 C 696.863281 554.667969 704 547.53125 704 538.667969 L 704 522.667969 C 704 531.53125 696.863281 538.667969 688 538.667969 L 336 538.667969 C 327.136719 538.667969 320 531.53125 320 522.667969 Z M 320 522.667969 "/>
</g>
<linearGradient id="linear11" gradientUnits="userSpaceOnUse" x1="48" y1="41" x2="60" y2="41" spreadMethod="reflect" gradientTransform="matrix(16,0,0,16,-256,-53.333333)">
<stop offset="0" style="stop-color:rgb(90.196078%,78.823529%,29.803922%);stop-opacity:1;"/>
<stop offset="0.578323" style="stop-color:rgb(90.588235%,80.784314%,37.254902%);stop-opacity:1;"/>
<stop offset="0.833333" style="stop-color:rgb(94.117647%,87.058824%,57.647059%);stop-opacity:1;"/>
<stop offset="0.916667" style="stop-color:rgb(81.568627%,71.372549%,29.803922%);stop-opacity:1;"/>
<stop offset="1" style="stop-color:rgb(56.470588%,49.019608%,18.039216%);stop-opacity:1;"/>
</linearGradient>
<mask id="mask27">
  <g filter="url(#alpha)">
<rect x="0" y="0" width="1024" height="1024" style="fill:rgb(0%,0%,0%);fill-opacity:0.301961;stroke:none;"/>
  </g>
</mask>
<clipPath id="clip28">
  <rect width="1024" height="1024"/>
</clipPath>
<g id="surface88" clip-path="url(#clip28)">
<path style=" stroke:none;fill-rule:nonzero;fill:rgb(100%,100%,100%);fill-opacity:1;" d="M 336 554.667969 C 327.136719 554.667969 320 561.800781 320 570.667969 L 320 586.667969 C 320 577.800781 327.136719 570.667969 336 570.667969 L 688 570.667969 C 696.863281 570.667969 704 577.800781 704 586.667969 L 704 570.667969 C 704 561.800781 696.863281 554.667969 688 554.667969 Z M 336 554.667969 "/>
</g>
<mask id="mask28">
  <g filter="url(#alpha)">
<rect x="0" y="0" width="1024" height="1024" style="fill:rgb(0%,0%,0%);fill-opacity:0.14902;stroke:none;"/>
  </g>
</mask>
<clipPath id="clip29">
  <rect width="1024" height="1024"/>
</clipPath>
<g id="surface91" clip-path="url(#clip29)">
<path style=" stroke:none;fill-rule:nonzero;fill:rgb(62.745098%,35.294118%,17.254902%);fill-opacity:1;" d="M 320 618.667969 L 320 634.667969 C 320 643.53125 327.136719 650.667969 336 650.667969 L 688 650.667969 C 696.863281 650.667969 704 643.53125 704 634.667969 L 704 618.667969 C 704 627.53125 696.863281 634.667969 688 634.667969 L 336 634.667969 C 327.136719 634.667969 320 627.53125 320 618.667969 Z M 320 618.667969 "/>
</g>
<linearGradient id="linear12" gradientUnits="userSpaceOnUse" x1="48" y1="41" x2="60" y2="41" spreadMethod="reflect" gradientTransform="matrix(16,0,0,16,-256,42.666667)">
<stop offset="0" style="stop-color:rgb(90.196078%,78.823529%,29.803922%);stop-opacity:1;"/>
<stop offset="0.578323" style="stop-color:rgb(90.588235%,80.784314%,37.254902%);stop-opacity:1;"/>
<stop offset="0.833333" style="stop-color:rgb(94.117647%,87.058824%,57.647059%);stop-opacity:1;"/>
<stop offset="0.916667" style="stop-color:rgb(81.568627%,71.372549%,29.803922%);stop-opacity:1;"/>
<stop offset="1" style="stop-color:rgb(56.470588%,49.019608%,18.039216%);stop-opacity:1;"/>
</linearGradient>
<mask id="mask29">
  <g filter="url(#alpha)">
<rect x="0" y="0" width="1024" height="1024" style="fill:rgb(0%,0%,0%);fill-opacity:0.301961;stroke:none;"/>
  </g>
</mask>
<clipPath id="clip30">
  <rect width="1024" height="1024"/>
</clipPath>
<g id="surface94" clip-path="url(#clip30)">
<path style=" stroke:none;fill-rule:nonzero;fill:rgb(100%,100%,100%);fill-opacity:1;" d="M 336 650.667969 C 327.136719 650.667969 320 657.800781 320 666.667969 L 320 682.667969 C 320 673.800781 327.136719 666.667969 336 666.667969 L 688 666.667969 C 696.863281 666.667969 704 673.800781 704 682.667969 L 704 666.667969 C 704 657.800781 696.863281 650.667969 688 650.667969 Z M 336 650.667969 "/>
</g>
<mask id="mask30">
  <g filter="url(#alpha)">
<rect x="0" y="0" width="1024" height="1024" style="fill:rgb(0%,0%,0%);fill-opacity:0.14902;stroke:none;"/>
  </g>
</mask>
<clipPath id="clip31">
  <rect width="1024" height="1024"/>
</clipPath>
<g id="surface97" clip-path="url(#clip31)">
<path style=" stroke:none;fill-rule:nonzero;fill:rgb(62.745098%,35.294118%,17.254902%);fill-opacity:1;" d="M 320 714.667969 L 320 730.667969 C 320 739.53125 327.136719 746.667969 336 746.667969 L 688 746.667969 C 696.863281 746.667969 704 739.53125 704 730.667969 L 704 714.667969 C 704 723.53125 696.863281 730.667969 688 730.667969 L 336 730.667969 C 327.136719 730.667969 320 723.53125 320 714.667969 Z M 320 714.667969 "/>
</g>
</defs>
<g id="surface1">
<use xlink:href="#surface6" mask="url(#mask0)"/>
<use xlink:href="#surface9" mask="url(#mask1)"/>
<use xlink:href="#surface12" mask="url(#mask2)"/>
<use xlink:href="#surface15" mask="url(#mask3)"/>
<use xlink:href="#surface18" mask="url(#mask4)"/>
<path style=" stroke:none;fill-rule:nonzero;fill:url(#linear5);" d="M 128 64 L 896 64 C 931.347656 64 960 92.652344 960 128 L 960 896 C 960 931.347656 931.347656 960 896 960 L 128 960 C 92.652344 960 64 931.347656 64 896 L 64 128 C 64 92.652344 92.652344 64 128 64 Z M 128 64 "/>
<use xlink:href="#surface22" mask="url(#mask5)"/>
<use xlink:href="#surface25" mask="url(#mask6)"/>
<use xlink:href="#surface28" mask="url(#mask7)"/>
<path style="fill:none;stroke-width:2;stroke-linecap:butt;stroke-linejoin:miter;stroke:url(#radial2);stroke-miterlimit:4;" d="M 7.000122 29.523193 C 58.249878 38.347412 38.633789 88.999878 38.633789 88.999878 " transform="matrix(10.666667,0,0,10.666667,0,0)"/>
<path style="fill:none;stroke-width:2;stroke-linecap:butt;stroke-linejoin:miter;stroke:url(#radial3);stroke-miterlimit:4;" d="M 27.676758 88.823364 C 26.616211 73.292358 56.129517 28.640625 88.823364 20.875122 " transform="matrix(10.666667,0,0,10.666667,0,0)"/>
<path style=" stroke:none;fill-rule:evenodd;fill:url(#radial4);" d="M 340.460938 395.863281 C 340.460938 420.816406 320.203125 441.042969 295.21875 441.042969 C 270.230469 441.042969 249.976562 420.816406 249.976562 395.863281 C 249.976562 370.910156 270.230469 350.683594 295.21875 350.683594 C 320.203125 350.683594 340.460938 370.910156 340.460938 395.863281 Z M 340.460938 395.863281 "/>
<path style=" stroke:none;fill-rule:evenodd;fill:url(#radial5);" d="M 466.757812 618.003906 C 466.757812 637.757812 450.722656 653.773438 430.941406 653.773438 C 411.160156 653.773438 395.125 637.757812 395.125 618.003906 C 395.125 598.25 411.160156 582.234375 430.941406 582.234375 C 450.722656 582.234375 466.757812 598.25 466.757812 618.003906 Z M 466.757812 618.003906 "/>
<path style=" stroke:none;fill-rule:evenodd;fill:url(#radial6);" d="M 740.09375 360.09375 C 740.09375 389.207031 716.460938 412.804688 687.3125 412.804688 C 658.160156 412.804688 634.527344 389.207031 634.527344 360.09375 C 634.527344 330.984375 658.160156 307.382812 687.3125 307.382812 C 716.460938 307.382812 740.09375 330.984375 740.09375 360.09375 Z M 740.09375 360.09375 "/>
<use xlink:href="#surface31" mask="url(#mask8)"/>
<use xlink:href="#surface34" mask="url(#mask9)"/>
<use xlink:href="#surface37" mask="url(#mask10)"/>
<path style="fill:none;stroke-width:2;stroke-linecap:butt;stroke-linejoin:miter;stroke:url(#radial10);stroke-miterlimit:4;" d="M 7.176636 47.701538 C 35.276001 28.287598 72.387817 27.228882 88.999878 49.289795 " transform="matrix(10.666667,0,0,10.666667,0,0)"/>
<use xlink:href="#surface40" mask="url(#mask11)"/>
<use xlink:href="#surface43" mask="url(#mask12)"/>
<use xlink:href="#surface46" mask="url(#mask13)"/>
<use xlink:href="#surface49" mask="url(#mask14)"/>
<use xlink:href="#surface52" mask="url(#mask15)"/>
<use xlink:href="#surface55" mask="url(#mask16)"/>
<path style=" stroke:none;fill-rule:nonzero;fill:url(#linear7);" d="M 512 219.167969 C 432.75 219.167969 368.5 283.417969 368.5 362.667969 L 368.5 490.667969 C 368.5 569.917969 432.75 634.167969 512 634.167969 C 591.25 634.167969 655.5 569.917969 655.5 490.667969 L 655.5 362.667969 C 655.5 283.417969 591.25 219.167969 512 219.167969 Z M 512 267.167969 C 565.589844 267.167969 607.5 309.074219 607.5 362.667969 L 607.5 490.667969 C 607.5 544.257812 565.589844 586.167969 512 586.167969 C 458.410156 586.167969 416.5 544.257812 416.5 490.667969 L 416.5 362.667969 C 416.5 309.074219 458.410156 267.167969 512 267.167969 Z M 512 267.167969 "/>
<use xlink:href="#surface58" mask="url(#mask17)"/>
<use xlink:href="#surface61" mask="url(#mask18)"/>
<use xlink:href="#surface64" mask="url(#mask19)"/>
<use xlink:href="#surface67" mask="url(#mask20)"/>
<use xlink:href="#surface70" mask="url(#mask21)"/>
<use xlink:href="#surface73" mask="url(#mask22)"/>
<use xlink:href="#surface76" mask="url(#mask23)"/>
<use xlink:href="#surface79" mask="url(#mask24)"/>
<path style=" stroke:none;fill-rule:nonzero;fill:url(#linear10);" d="M 336 458.667969 L 688 458.667969 C 696.835938 458.667969 704 465.832031 704 474.667969 L 704 538.667969 C 704 547.503906 696.835938 554.667969 688 554.667969 L 336 554.667969 C 327.164062 554.667969 320 547.503906 320 538.667969 L 320 474.667969 C 320 465.832031 327.164062 458.667969 336 458.667969 Z M 336 458.667969 "/>
<use xlink:href="#surface82" mask="url(#mask25)"/>
<use xlink:href="#surface85" mask="url(#mask26)"/>
<path style=" stroke:none;fill-rule:nonzero;fill:url(#linear11);" d="M 336 554.667969 L 688 554.667969 C 696.835938 554.667969 704 561.832031 704 570.667969 L 704 634.667969 C 704 643.503906 696.835938 650.667969 688 650.667969 L 336 650.667969 C 327.164062 650.667969 320 643.503906 320 634.667969 L 320 570.667969 C 320 561.832031 327.164062 554.667969 336 554.667969 Z M 336 554.667969 "/>
<use xlink:href="#surface88" mask="url(#mask27)"/>
<use xlink:href="#surface91" mask="url(#mask28)"/>
<path style=" stroke:none;fill-rule:nonzero;fill:url(#linear12);" d="M 336 650.667969 L 688 650.667969 C 696.835938 650.667969 704 657.832031 704 666.667969 L 704 730.667969 C 704 739.503906 696.835938 746.667969 688 746.667969 L 336 746.667969 C 327.164062 746.667969 320 739.503906 320 730.667969 L 320 666.667969 C 320 657.832031 327.164062 650.667969 336 650.667969 Z M 336 650.667969 "/>
<use xlink:href="#surface94" mask="url(#mask29)"/>
<use xlink:href="#surface97" mask="url(#mask30)"/>
</g>
</svg>
